<svg width="15" height="15" viewBox="0 0 15 15" fill="none" xmlns="http://www.w3.org/2000/svg">
<path d="M5.33595 2.38128C5.95172 0.24596 8.97734 0.24596 9.59312 2.38128C9.86662 3.32972 10.7346 3.98278 11.7217 3.98278H11.8302C14.0474 3.98278 15.0406 6.76375 13.3249 8.1682L12.8884 8.5255C12.1407 9.13762 11.8295 10.1364 12.0973 11.0649L12.3114 11.8073C12.9029 13.8584 10.4945 15.4459 8.8427 14.0937C8.04109 13.4375 6.88798 13.4375 6.08637 14.0937C4.43458 15.4459 2.02621 13.8584 2.61769 11.8074L2.8318 11.0649C3.09956 10.1364 2.78839 9.13762 2.04064 8.5255L1.60417 8.1682C-0.111488 6.76374 0.881622 3.98278 3.09882 3.98278H3.20736C4.19444 3.98278 5.06244 3.32972 5.33595 2.38128Z" fill="#E3170A"/>
</svg>
